<svg xmlns="http://www.w3.org/2000/svg" viewBox="0 0 158.74 90.71">
	<defs>
		<style>.cls-1{fill:#231f20;}.cls-2{fill:#3c3c3b;}.cls-3{fill:#0032d3;}.cls-4{fill:#cc0028;}</style>
	</defs>
	<title>Fichier 1</title>
	<g id="Calque_2" data-name="Calque 2">
		<g id="Calque_1-2" data-name="Calque 1">
			<g id="typo">
				<path class="cls-2"
				      d="M84.58,47c-6.85-2.59-11-7.6-15.31-12.9l-.45-.54L83.35,19.7a1,1,0,0,0,0-1.39L80,14.78a1,1,0,0,0-1.38,0l-17.75,17v-22a1,1,0,0,0-1-1H55a1,1,0,0,0-1,1V52.66a1,1,0,0,0,1,1h4.9a1,1,0,0,0,1-1V41.17l3-2.85h0c4.54,5.52,9.67,11.83,18.3,15.09l2.29.87a1,1,0,0,0,1.26-.57l1.73-4.57a1,1,0,0,0-.57-1.27Z"/>
				<path class="cls-2"
				      d="M107.76,54.17a1,1,0,0,1-1.25.58l-2.3-.83c-6.09-2.22-9.59-9.24-9.59-19.26V9.74a1,1,0,0,1,1-1h4.89a1,1,0,0,1,1,1V34.66c0,8.09,2.62,11.93,5.08,12.82l2.3.84a1,1,0,0,1,.59,1.25Z"/>
				<path class="cls-2" d="M133.51,54.12A19.32,19.32,0,1,1,152.83,34.8,19.33,19.33,0,0,1,133.51,54.12Zm0-31.79A12.48,12.48,0,1,0,146,34.8,12.49,12.49,0,0,0,133.51,22.33Z"/>
				<path class="cls-2" d="M116,16.8a4.38,4.38,0,1,1,4.37-4.38A4.38,4.38,0,0,1,116,16.8Z"/>
				<path class="cls-2" d="M140.23,12.64a4.38,4.38,0,1,1,4.37-4.37A4.38,4.38,0,0,1,140.23,12.64Z"/>
				<path class="cls-2"
				      d="M25.05,54.12c-10.32,0-18.71-8.66-18.71-19.32s8.39-19.31,18.71-19.31,18.7,8.66,18.7,19.31S35.36,54.12,25.05,54.12Zm0-31.79c-6.54,0-11.86,5.6-11.86,12.47s5.32,12.48,11.86,12.48,11.86-5.6,11.86-12.48S31.59,22.33,25.05,22.33Z"/>
			</g>
			<path class="cls-2"
			      d="M16.76,65.52a3.13,3.13,0,0,0-2.67-1.16,3.24,3.24,0,0,0-2.76,1.25V61.69a.42.42,0,0,0-.11-.29.39.39,0,0,0-.28-.11h-.77a.41.41,0,0,0-.28.11.37.37,0,0,0-.11.29V72.36a.38.38,0,0,0,.39.39h.72a.38.38,0,0,0,.39-.39v-.74a3.28,3.28,0,0,0,2.81,1.3,3.13,3.13,0,0,0,2.67-1.17,4.89,4.89,0,0,0,.95-2.91v-.4A4.92,4.92,0,0,0,16.76,65.52Zm-.6,3.3a3.54,3.54,0,0,1-.61,2,2.05,2.05,0,0,1-1.79.77A2.1,2.1,0,0,1,12,70.8a3.18,3.18,0,0,1-.64-1.88c0-.12,0-.56,0-.69A2.83,2.83,0,0,1,12,66.44a2.14,2.14,0,0,1,1.77-.76c1.61,0,2.42.47,2.42,2.64C16.18,68.54,16.17,68.7,16.16,68.82Z"/>
			<path class="cls-2"
			      d="M29.21,66.33a2.21,2.21,0,0,1,1.7-.66,2.46,2.46,0,0,1,1.35.34,2.29,2.29,0,0,1,.84,1.19.85.85,0,0,0,.17.28.38.38,0,0,0,.26.07h.74a.38.38,0,0,0,.28-.12.28.28,0,0,0,.11-.27,2.58,2.58,0,0,0-.45-1.29A3.12,3.12,0,0,0,33,64.79a4.49,4.49,0,0,0-2.07-.43,3.84,3.84,0,0,0-2.84,1A4.09,4.09,0,0,0,27,68.27V69a4.08,4.08,0,0,0,1.07,2.88,3.85,3.85,0,0,0,2.84,1A4.37,4.37,0,0,0,33,72.47a3.12,3.12,0,0,0,1.25-1.08,2.57,2.57,0,0,0,.45-1.28.28.28,0,0,0-.11-.27.38.38,0,0,0-.28-.12h-.74a.34.34,0,0,0-.26.08.75.75,0,0,0-.17.28,2.3,2.3,0,0,1-.83,1.18,2.45,2.45,0,0,1-1.36.35,2.19,2.19,0,0,1-1.7-.67,3,3,0,0,1-.68-2v-.57A3,3,0,0,1,29.21,66.33Z"/>
			<path class="cls-2"
			      d="M51.16,65.41a4.43,4.43,0,0,0-5.73,0,4.09,4.09,0,0,0-1.1,2.81v.84a4.16,4.16,0,0,0,1.08,2.8,3.8,3.8,0,0,0,2.88,1.06,3.81,3.81,0,0,0,2.89-1.06,4.16,4.16,0,0,0,1.08-2.8,5.89,5.89,0,0,0,0-.84A4.09,4.09,0,0,0,51.16,65.41ZM50.71,69A3,3,0,0,1,50,71a2.5,2.5,0,0,1-3.45,0,3,3,0,0,1-.69-2V68.3a3,3,0,0,1,.69-2,2.5,2.5,0,0,1,3.45,0,3,3,0,0,1,.69,2C50.72,68.41,50.72,68.86,50.71,69Z"/>
			<path class="cls-2"
			      d="M63.4,64.53h-.79a.37.37,0,0,0-.28.11.38.38,0,0,0-.11.28V69a2.7,2.7,0,0,1-.63,1.89,2.24,2.24,0,0,1-1.73.69q-2.25,0-2.25-2.58V64.92a.38.38,0,0,0-.39-.39h-.78a.36.36,0,0,0-.28.11.38.38,0,0,0-.11.28v4.17a4.16,4.16,0,0,0,.88,2.78,3.1,3.1,0,0,0,2.5,1,3.8,3.8,0,0,0,1.69-.33,3.43,3.43,0,0,0,1.16-1v.77a.37.37,0,0,0,.11.28.38.38,0,0,0,.28.11h.73a.38.38,0,0,0,.39-.39V64.92a.38.38,0,0,0-.11-.28A.37.37,0,0,0,63.4,64.53Z"/>
			<path class="cls-2"
			      d="M80.42,65.49a3.17,3.17,0,0,0-2.68-1.13,3.28,3.28,0,0,0-2.8,1.31v-.75a.42.42,0,0,0-.1-.29.39.39,0,0,0-.29-.1h-.72a.4.4,0,0,0-.28.1.38.38,0,0,0-.11.29V75.59a.4.4,0,0,0,.11.29.45.45,0,0,0,.28.1h.77a.38.38,0,0,0,.39-.39v-4a3.64,3.64,0,0,0,5.43.16,4.78,4.78,0,0,0,1-2.88,5.65,5.65,0,0,0-1-3.41Zm-.6,3.33a3.54,3.54,0,0,1-.61,2,2.05,2.05,0,0,1-1.79.77,2.17,2.17,0,0,1-1.78-.76A2.88,2.88,0,0,1,75,69c0-.13,0-.58,0-.7a3.1,3.1,0,0,1,.64-1.87,2.13,2.13,0,0,1,1.79-.79c1.61,0,2.42.47,2.42,2.64C79.84,68.54,79.83,68.7,79.82,68.82Z"/>
			<path class="cls-2"
			      d="M89.77,64.53h-.66a2.54,2.54,0,0,0-2.37,1.15v-.75a.36.36,0,0,0-.11-.29.37.37,0,0,0-.3-.11h-.71a.39.39,0,0,0-.28.11.44.44,0,0,0-.11.29v7.43a.41.41,0,0,0,.11.28.39.39,0,0,0,.28.11h.76a.42.42,0,0,0,.29-.11.38.38,0,0,0,.12-.28V68a2,2,0,0,1,.54-1.48,2,2,0,0,1,1.47-.54h1a.36.36,0,0,0,.39-.39v-.63a.38.38,0,0,0-.1-.29A.39.39,0,0,0,89.77,64.53Z"/>
			<path class="cls-2"
			      d="M125.4,64.53h-.73a.36.36,0,0,0-.28.11.34.34,0,0,0-.11.28v.75a3.23,3.23,0,0,0-2.79-1.31,3.18,3.18,0,0,0-2.68,1.13,4.74,4.74,0,0,0-1,2.88v.53a4.71,4.71,0,0,0,1,2.88,3.65,3.65,0,0,0,5.44-.16v4a.4.4,0,0,0,.11.29.45.45,0,0,0,.28.1h.77a.39.39,0,0,0,.28-.11.41.41,0,0,0,.11-.28V64.92a.38.38,0,0,0-.11-.28A.36.36,0,0,0,125.4,64.53ZM124.24,69a2.88,2.88,0,0,1-.65,1.79,2.16,2.16,0,0,1-1.78.76c-1.61,0-2.41-1.09-2.41-3.27v-.49a2.14,2.14,0,0,1,.65-1.53,2.17,2.17,0,0,1,1.75-.62,2.11,2.11,0,0,1,1.79.78,3.32,3.32,0,0,1,.64,1.88A4.09,4.09,0,0,1,124.24,69Z"/>
			<path class="cls-2"
			      d="M137.31,64.53h-.79a.37.37,0,0,0-.28.11.38.38,0,0,0-.11.28V69a2.66,2.66,0,0,1-.64,1.89,2.22,2.22,0,0,1-1.72.69q-2.25,0-2.25-2.58V64.92a.38.38,0,0,0-.39-.39h-.78a.36.36,0,0,0-.28.11.34.34,0,0,0-.11.28v4.17a4.16,4.16,0,0,0,.88,2.78,3.1,3.1,0,0,0,2.5,1,3.83,3.83,0,0,0,1.69-.33,3.4,3.4,0,0,0,1.15-1v.77a.38.38,0,0,0,.39.39h.74a.38.38,0,0,0,.39-.39V64.92a.38.38,0,0,0-.11-.28A.37.37,0,0,0,137.31,64.53Z"/>
			<path class="cls-2"
			      d="M148.35,65.55a3.59,3.59,0,0,0-2.9-1.19,3.67,3.67,0,0,0-2.77,1.08,4.47,4.47,0,0,0-1.14,2.93s0,.37,0,.56a4.9,4.9,0,0,0,1.16,2.91,3.67,3.67,0,0,0,2.77,1.08,4.52,4.52,0,0,0,1.93-.39,3.54,3.54,0,0,0,1.3-.91,1.48,1.48,0,0,0,.46-.9.25.25,0,0,0-.11-.22.45.45,0,0,0-.26-.08H148a.68.68,0,0,0-.29,0,1,1,0,0,0-.24.25,2.92,2.92,0,0,1-.75.65,2.43,2.43,0,0,1-1.3.32,2,2,0,0,1-1.67-.79,3.06,3.06,0,0,1-.63-1.42H149a.36.36,0,0,0,.28-.11.38.38,0,0,0,.11-.28v-.3A4.75,4.75,0,0,0,148.35,65.55Zm-.52,2.77h-4.74v0a2.9,2.9,0,0,1,.63-1.94,2.14,2.14,0,0,1,1.73-.75,2.18,2.18,0,0,1,1.74.75,2.86,2.86,0,0,1,.64,1.94Z"/>
			<path class="cls-2"
			      d="M41.59,71.89l-.51-.19c-.55-.2-1.13-1-1.13-2.85V66.19h0v-4.5a.38.38,0,0,0-.39-.4h-.75a.41.41,0,0,0-.28.11.37.37,0,0,0-.11.29v7.16c0,2.23.78,3.79,2.14,4.29l.51.18a.21.21,0,0,0,.28-.13l.37-1A.21.21,0,0,0,41.59,71.89Z"/>
			<path class="cls-2"
			      d="M108.83,64.64a.37.37,0,0,0-.28-.11h-2.11V61.69a.42.42,0,0,0-.11-.29.41.41,0,0,0-.28-.11h-.75a.34.34,0,0,0-.27.11.42.42,0,0,0-.11.29v2.84h-1.34a.33.33,0,0,0-.27.11.37.37,0,0,0-.1.28v.54a.35.35,0,0,0,.1.27.37.37,0,0,0,.27.11h1.34v3c0,2.23.78,3.79,2.14,4.29l.51.18a.21.21,0,0,0,.28-.13l.37-1a.21.21,0,0,0-.13-.28l-.51-.19c-.55-.2-1.14-1-1.14-2.85v-3h2.11a.41.41,0,0,0,.28-.11.35.35,0,0,0,.11-.27v-.54A.38.38,0,0,0,108.83,64.64Z"/>
			<path class="cls-2"
			      d="M100,68.39V64.92a.38.38,0,0,0-.11-.28.36.36,0,0,0-.28-.11h-.78a.38.38,0,0,0-.39.39v0a4.19,4.19,0,0,0-2.32-.6,3.81,3.81,0,0,0-2.86,1,4,4,0,0,0-1,2.81v.87a4.16,4.16,0,0,0,.89,2.78,3.08,3.08,0,0,0,2.5,1,3.75,3.75,0,0,0,1.68-.33,3.43,3.43,0,0,0,1.16-1v.77a.37.37,0,0,0,.11.28.38.38,0,0,0,.28.11h.73a.39.39,0,0,0,.28-.11.41.41,0,0,0,.11-.28v-3.5A3.69,3.69,0,0,0,100,68.39ZM98.44,69a2.7,2.7,0,0,1-.64,1.89,2.24,2.24,0,0,1-1.73.69c-1.5,0-2.24-.86-2.24-2.58V68.3a2.92,2.92,0,0,1,.57-2,2.5,2.5,0,0,1,3.45,0,3,3,0,0,1,.58,2,.41.41,0,0,0,0,.1v.32h0V69Z"/>
			<path class="cls-2"
			      d="M113.6,64.53h-.75a.36.36,0,0,0-.28.11.34.34,0,0,0-.11.28v7.44a.37.37,0,0,0,.11.28.39.39,0,0,0,.28.11h.75a.38.38,0,0,0,.39-.39V64.92a.38.38,0,0,0-.11-.28A.37.37,0,0,0,113.6,64.53Z"/>
			<circle class="cls-2" cx="113.21" cy="62.04" r="1.02"/>
			<path class="cls-2"
			      d="M22.71,64.53H22a.36.36,0,0,0-.28.11.38.38,0,0,0-.11.28v7.44a.41.41,0,0,0,.11.28.39.39,0,0,0,.28.11h.75a.39.39,0,0,0,.28-.11.41.41,0,0,0,.11-.28V64.92a.38.38,0,0,0-.11-.28A.36.36,0,0,0,22.71,64.53Z"/>
			<circle class="cls-2" cx="22.33" cy="62.04" r="1.02"/>
			<path class="cls-3" d="M56.57,80.47H72.44a0,0,0,0,1,0,0V82a0,0,0,0,1,0,0H57.73a1.16,1.16,0,0,1-1.16-1.16v-.39A0,0,0,0,1,56.57,80.47Z"/>
			<path class="cls-4" d="M86.72,80.47H102.6a0,0,0,0,1,0,0v.34A1.21,1.21,0,0,1,101.39,82H86.72a0,0,0,0,1,0,0V80.47A0,0,0,0,1,86.72,80.47Z"/>
		</g>
	</g>
</svg>